<svg width="90" height="90" viewBox="0 0 90 90" fill="none" xmlns="http://www.w3.org/2000/svg">
<path d="M18.75 78.75H71.25C75.3921 78.75 78.75 75.3921 78.75 71.25V18.75C78.75 14.6079 75.3921 11.25 71.25 11.25H18.75C14.6079 11.25 11.25 14.6079 11.25 18.75V71.25C11.25 75.3921 14.6079 78.75 18.75 78.75ZM18.75 78.75L60 37.5L78.75 56.25M37.5 31.875C37.5 34.9816 34.9816 37.5 31.875 37.5C28.7684 37.5 26.25 34.9816 26.25 31.875C26.25 28.7684 28.7684 26.25 31.875 26.25C34.9816 26.25 37.5 28.7684 37.5 31.875Z" stroke="white" stroke-width="3.5" stroke-linecap="round" stroke-linejoin="round"/>
</svg>
